<?xml version="1.0" standalone="no"?>
<!DOCTYPE svg PUBLIC "-//W3C//DTD SVG 20010904//EN"
 "http://www.w3.org/TR/2001/REC-SVG-20010904/DTD/svg10.dtd">
<svg version="1.0" xmlns="http://www.w3.org/2000/svg"
 width="250.000000pt" height="250.000000pt" viewBox="0 0 250.000000 250.000000"
 preserveAspectRatio="xMidYMid meet">
<metadata>
Created by potrace 1.14, written by Peter Selinger 2001-2017
</metadata>
<g transform="translate(0.000000,250.000000) scale(0.100000,-0.100000)"
fill="#000000" stroke="none">
<path d="M100 1260 c0 -241 3 -310 13 -310 6 0 29 3 50 6 l37 7 0 132 0 132
57 2 c31 1 59 4 63 6 3 2 5 23 5 46 l0 43 -63 -3 -62 -2 0 80 0 81 58 1 c31 1
62 2 67 4 6 1 16 3 23 3 7 1 12 17 12 42 l0 40 -130 0 -130 0 0 -310z"/>
<path d="M400 1280 c0 -225 3 -290 13 -290 6 0 29 3 50 6 l37 7 0 283 0 284
-50 0 -50 0 0 -290z"/>
<path d="M560 1289 l0 -280 108 7 c59 4 114 8 122 10 8 1 19 3 23 3 5 1 7 20
5 43 l-3 43 -77 -3 -78 -4 0 231 0 231 -50 0 -50 0 0 -281z"/>
<path d="M850 1300 l0 -270 45 0 45 0 1 173 1 172 32 -170 31 -170 45 4 c25 1
47 4 48 6 2 2 16 77 30 167 l27 163 3 -168 2 -168 48 3 47 3 0 263 0 263 -69
-3 -70 -3 -30 -175 -30 -175 -23 125 c-13 69 -28 149 -34 178 l-10 52 -70 0
-69 0 0 -270z"/>
<path d="M1320 1305 l0 -265 50 0 49 0 3 113 3 112 58 -1 57 0 0 44 0 44 -37
-2 c-87 -4 -83 -8 -83 70 l0 70 74 0 74 0 4 40 4 40 -128 0 -128 0 0 -265z"/>
<path d="M1610 1300 l0 -270 48 -1 c26 0 58 -2 72 -4 14 -2 51 -6 83 -8 l57
-5 0 47 0 48 -72 2 c-39 1 -75 4 -79 6 -3 3 -6 106 -5 230 l1 225 -52 0 -53 0
0 -270z"/>
<path d="M1904 1290 c-1 -250 1 -280 15 -280 9 -1 32 -3 52 -6 l35 -5 0 285 0
286 -50 0 -51 0 -1 -280z"/>
<path d="M2102 1432 l50 -138 -45 -124 c-47 -129 -65 -190 -53 -179 4 4 22 3
40 -1 19 -4 38 -5 42 -1 5 3 25 55 45 115 l36 110 22 -75 c51 -172 54 -179 70
-179 9 0 33 -3 53 -6 l37 -6 -41 128 c-22 71 -46 148 -53 171 -12 40 -11 47
36 180 27 76 49 139 49 141 0 1 -21 2 -48 2 l-47 0 -35 -102 -34 -101 -34 101
-34 102 -52 0 -53 0 49 -138z"/>
</g>
</svg>
